<svg width="280" height="311" viewBox="0 0 280 311" fill="none" xmlns="http://www.w3.org/2000/svg">
<path fill-rule="evenodd" clip-rule="evenodd" d="M279.142 216.458V95.0263C279.142 82.9559 272.684 71.822 262.162 65.7868L156.951 5.01874C146.43 -1.01645 133.617 -1.01645 123.096 5.01874L17.8843 65.6828C7.36319 71.718 0.904663 82.8518 0.904663 95.0263V216.458C0.904663 228.529 7.36319 239.663 17.8843 245.698L123.096 306.362C133.617 312.397 146.43 312.397 156.951 306.362L262.267 245.594C272.684 239.663 279.142 228.529 279.142 216.458Z" fill="#30ACB4"/>
<path fill-rule="evenodd" clip-rule="evenodd" d="M140.076 292.21C137.471 292.21 134.867 291.482 132.471 290.233L27.2597 229.465C22.572 226.76 19.6553 221.765 19.6553 216.354V95.0263C19.6553 89.6154 22.572 84.6208 27.1555 81.9154L132.471 21.1473C134.763 19.7945 137.367 19.1702 140.076 19.1702C142.784 19.1702 145.284 19.8986 147.68 21.1473L252.996 81.9154C257.683 84.6208 260.6 89.6154 260.6 95.0263V216.458C260.6 221.869 257.683 226.864 252.996 229.569L147.68 290.337C145.284 291.482 142.68 292.21 140.076 292.21Z" fill="#FC6161"/>
<mask id="mask0_4_80" style="mask-type:alpha" maskUnits="userSpaceOnUse" x="10" y="133" width="259" height="61">
<path d="M10.6458 133.301H268.646V193.301H10.6458V133.301Z" fill="white"/>
</mask>
<g mask="url(#mask0_4_80)">
<path fill-rule="evenodd" clip-rule="evenodd" d="M10.6458 34.2317H268.646V292.232H10.6458V34.2317Z" fill="#30ACB4"/>
</g>
<mask id="mask1_4_80" style="mask-type:alpha" maskUnits="userSpaceOnUse" x="122" y="244" width="36" height="35">
<path d="M122 244H157.139V278.037H122V244Z" fill="white"/>
</mask>
<g mask="url(#mask1_4_80)">
<path fill-rule="evenodd" clip-rule="evenodd" d="M144.917 255.167L157.139 256.912L148.335 265.657L150.471 277.948L139.523 272.186L128.621 278.037L130.658 265.73L121.785 257.056L133.992 255.212L139.41 244L144.917 255.167Z" fill="white"/>
</g>
<path fill-rule="evenodd" clip-rule="evenodd" d="M178.87 65.8803C178.87 64.6713 178.312 63.7413 177.289 63.0903C177.103 62.9973 176.824 62.8113 176.638 62.7183C176.638 59.6494 176.545 56.4875 176.359 53.3256C175.987 46.0718 172.174 42.5378 165.013 42.4448C158.782 42.4448 152.551 42.4448 146.32 42.4448C136.183 42.4448 126.139 42.3518 116.002 42.5378C106.702 42.7238 102.982 46.6297 102.982 55.9295C102.982 58.1614 102.982 60.3934 102.982 62.7183C102.424 62.9043 101.959 63.3693 101.587 63.8343C100.936 64.3923 100.75 65.2293 100.75 66.1592C100.75 70.4371 100.75 74.715 100.75 79.0859C100.75 80.3879 101.215 81.4109 102.331 82.0618C102.61 82.2478 102.796 82.3408 103.075 82.4338C103.075 91.6406 103.075 100.754 103.075 109.961C103.075 111.263 102.889 112.751 103.54 113.867C104.935 116.099 104.656 118.517 104.749 120.935C104.842 123.911 106.795 125.957 109.771 126.05C111.91 126.143 114.049 126.143 116.188 126.05C119.257 125.957 121.21 124.19 121.303 121.121C121.396 119.819 121.582 119.354 123.07 119.354C134.23 119.447 145.483 119.447 156.643 119.354C158.038 119.354 158.41 119.726 158.41 121.121C158.503 124.376 160.456 126.05 163.711 126.05C165.571 126.05 167.431 126.05 169.291 126.05C173.104 126.05 174.964 124.097 175.057 120.284C175.057 118.796 174.592 117.122 175.429 115.727C176.452 113.867 176.731 112.007 176.731 109.961C176.731 101.312 176.731 92.6636 176.731 82.4338C177.382 82.3408 177.94 81.7829 178.312 81.2249C178.777 80.6669 178.963 79.9229 178.963 79.1789C178.87 74.808 178.87 70.3441 178.87 65.8803ZM124.279 49.1407C129.859 49.1407 135.439 49.1407 140.926 49.1407C146.32 49.1407 151.714 49.1407 157.201 49.1407C159.619 49.1407 159.898 49.5127 159.991 52.3026C159.991 55.3715 159.712 55.8365 157.387 55.8365C146.32 55.8365 135.253 55.8365 124.279 55.8365C121.861 55.8365 121.396 55.2785 121.396 52.4886C121.303 49.6987 121.768 49.1407 124.279 49.1407ZM117.304 111.077C114.049 111.077 111.352 108.38 111.352 105.125C111.445 101.963 114.142 99.3594 117.211 99.3594C120.466 99.3594 122.884 101.87 122.884 105.218C122.977 108.473 120.466 111.077 117.304 111.077ZM116.467 90.9896C112.933 90.9896 111.352 89.3157 111.352 85.6888C111.352 79.1789 111.352 72.6691 111.352 66.1592C111.352 62.5323 112.84 61.0444 116.467 61.0444C124.279 61.0444 131.998 61.0444 139.81 61.0444C147.436 61.0444 155.062 61.0444 162.688 61.0444C166.78 61.0444 168.175 62.4393 168.175 66.4382C168.175 72.6691 168.175 78.8999 168.175 85.1308C168.175 88.8507 166.129 90.8966 162.409 90.9896C147.157 90.9896 131.812 90.9896 116.467 90.9896ZM162.409 111.077C159.247 111.077 156.736 108.566 156.643 105.311C156.643 101.963 159.061 99.4524 162.316 99.4524C165.571 99.4524 168.268 102.149 168.268 105.404C168.175 108.38 165.571 111.077 162.409 111.077Z" fill="white"/>
<path d="M21.8754 149.1H26.9814L30.9404 164.603H31.0144V149.1H34.6404V175H30.4594L25.5754 156.093H25.5014V175H21.8754V149.1ZM43.5484 175.37C41.5504 175.37 40.0211 174.803 38.9604 173.668C37.8998 172.533 37.3694 170.93 37.3694 168.858V155.242C37.3694 153.17 37.8998 151.567 38.9604 150.432C40.0211 149.297 41.5504 148.73 43.5484 148.73C45.5464 148.73 47.0758 149.297 48.1364 150.432C49.1971 151.567 49.7274 153.17 49.7274 155.242V168.858C49.7274 170.93 49.1971 172.533 48.1364 173.668C47.0758 174.803 45.5464 175.37 43.5484 175.37ZM43.5484 171.67C44.9544 171.67 45.6574 170.819 45.6574 169.117V154.983C45.6574 153.281 44.9544 152.43 43.5484 152.43C42.1424 152.43 41.4394 153.281 41.4394 154.983V169.117C41.4394 170.819 42.1424 171.67 43.5484 171.67ZM52.4799 149.1H58.6959C60.7186 149.1 62.2356 149.643 63.2469 150.728C64.2582 151.813 64.7639 153.404 64.7639 155.501V168.599C64.7639 170.696 64.2582 172.287 63.2469 173.372C62.2356 174.457 60.7186 175 58.6959 175H52.4799V149.1ZM58.6219 171.3C59.2879 171.3 59.7936 171.103 60.1389 170.708C60.5089 170.313 60.6939 169.672 60.6939 168.784V155.316C60.6939 154.428 60.5089 153.787 60.1389 153.392C59.7936 152.997 59.2879 152.8 58.6219 152.8H56.5499V171.3H58.6219ZM67.5111 149.1H78.6111V152.8H71.5811V159.645H77.1681V163.345H71.5811V171.3H78.6111V175H67.5111V149.1ZM80.3605 160.2H88.5005V163.9H80.3605V160.2ZM96.6972 175.37C94.7239 175.37 93.2192 174.815 92.1832 173.705C91.1472 172.57 90.6292 170.955 90.6292 168.858V155.242C90.6292 153.145 91.1472 151.542 92.1832 150.432C93.2192 149.297 94.7239 148.73 96.6972 148.73C98.6705 148.73 100.175 149.297 101.211 150.432C102.247 151.542 102.765 153.145 102.765 155.242V157.462H98.9172V154.983C98.9172 153.281 98.2142 152.43 96.8082 152.43C95.4022 152.43 94.6992 153.281 94.6992 154.983V169.154C94.6992 170.831 95.4022 171.67 96.8082 171.67C98.2142 171.67 98.9172 170.831 98.9172 169.154V164.085H96.8822V160.385H102.765V168.858C102.765 170.955 102.247 172.57 101.211 173.705C100.175 174.815 98.6705 175.37 96.6972 175.37ZM108.56 152.8H104.305V149.1H116.885V152.8H112.63V175H108.56V152.8ZM118.856 149.1H129.623V152.8H122.926V160.015H128.18V163.715H122.926V175H118.856V149.1ZM136.866 175.37C134.892 175.37 133.4 174.815 132.389 173.705C131.377 172.57 130.872 170.955 130.872 168.858V167.378H134.72V169.154C134.72 170.831 135.423 171.67 136.829 171.67C137.519 171.67 138.037 171.473 138.383 171.078C138.753 170.659 138.938 169.993 138.938 169.08C138.938 167.995 138.691 167.045 138.198 166.231C137.704 165.392 136.792 164.393 135.46 163.234C133.782 161.754 132.611 160.422 131.945 159.238C131.279 158.029 130.946 156.673 130.946 155.168C130.946 153.121 131.464 151.542 132.5 150.432C133.536 149.297 135.04 148.73 137.014 148.73C138.962 148.73 140.43 149.297 141.417 150.432C142.428 151.542 142.934 153.145 142.934 155.242V156.315H139.086V154.983C139.086 154.095 138.913 153.454 138.568 153.059C138.222 152.64 137.717 152.43 137.051 152.43C135.694 152.43 135.016 153.256 135.016 154.909C135.016 155.846 135.262 156.722 135.756 157.536C136.274 158.35 137.199 159.337 138.531 160.496C140.233 161.976 141.404 163.32 142.046 164.529C142.687 165.738 143.008 167.156 143.008 168.784C143.008 170.905 142.477 172.533 141.417 173.668C140.381 174.803 138.864 175.37 136.866 175.37ZM144.605 160.2H152.745V163.9H144.605V160.2ZM155.169 149.1H161.2C163.297 149.1 164.826 149.593 165.788 150.58C166.75 151.542 167.231 153.034 167.231 155.057V156.648C167.231 159.337 166.343 161.039 164.567 161.754V161.828C165.554 162.124 166.245 162.728 166.639 163.641C167.059 164.554 167.268 165.775 167.268 167.304V171.855C167.268 172.595 167.293 173.199 167.342 173.668C167.392 174.112 167.515 174.556 167.712 175H163.568C163.42 174.581 163.322 174.186 163.272 173.816C163.223 173.446 163.198 172.78 163.198 171.818V167.082C163.198 165.898 163.001 165.072 162.606 164.603C162.236 164.134 161.583 163.9 160.645 163.9H159.239V175H155.169V149.1ZM160.719 160.2C161.533 160.2 162.138 159.99 162.532 159.571C162.952 159.152 163.161 158.449 163.161 157.462V155.464C163.161 154.527 162.989 153.848 162.643 153.429C162.323 153.01 161.805 152.8 161.089 152.8H159.239V160.2H160.719ZM170.092 149.1H181.192V152.8H174.162V159.645H179.749V163.345H174.162V171.3H181.192V175H170.092V149.1ZM186.679 149.1H192.192L196.41 175H192.34L191.6 169.857V169.931H186.975L186.235 175H182.461L186.679 149.1ZM191.119 166.416L189.306 153.614H189.232L187.456 166.416H191.119ZM198.384 149.1H202.454V171.3H209.151V175H198.384V149.1ZM211.394 152.8H207.139V149.1H219.719V152.8H215.464V175H211.394V152.8ZM221.69 149.1H225.76V175H221.69V149.1ZM228.808 149.1H234.617L237.207 167.637H237.281L239.871 149.1H245.68V175H241.832V155.39H241.758L238.798 175H235.394L232.434 155.39H232.36V175H228.808V149.1ZM248.717 149.1H259.817V152.8H252.787V159.645H258.374V163.345H252.787V171.3H259.817V175H248.717V149.1Z" fill="white"/>
</svg>
