<svg width="375" height="375" viewBox="0 0 375 375" fill="none" xmlns="http://www.w3.org/2000/svg">
<path fill-rule="evenodd" clip-rule="evenodd" d="M328.142 240.458V119.026C328.142 106.956 321.684 95.822 311.162 89.7868L205.951 29.0187C195.43 22.9836 182.617 22.9836 172.096 29.0187L66.8843 89.6828C56.3632 95.718 49.9047 106.852 49.9047 119.026V240.458C49.9047 252.529 56.3632 263.663 66.8843 269.698L172.096 330.362C182.617 336.397 195.43 336.397 205.951 330.362L311.267 269.594C321.684 263.663 328.142 252.529 328.142 240.458Z" fill="#30ACB4"/>
<path fill-rule="evenodd" clip-rule="evenodd" d="M189.076 316.21C186.471 316.21 183.867 315.482 181.471 314.233L76.2597 253.465C71.572 250.76 68.6553 245.765 68.6553 240.354V119.026C68.6553 113.615 71.572 108.621 76.1555 105.915L181.471 45.1473C183.763 43.7945 186.367 43.1702 189.076 43.1702C191.784 43.1702 194.284 43.8986 196.68 45.1473L301.996 105.915C306.683 108.621 309.6 113.615 309.6 119.026V240.458C309.6 245.869 306.683 250.864 301.996 253.569L196.68 314.337C194.284 315.482 191.68 316.21 189.076 316.21Z" fill="#FC6161"/>
<mask id="mask0_4_79" style="mask-type:alpha" maskUnits="userSpaceOnUse" x="59" y="157" width="259" height="61">
<path d="M59.6458 157.301H317.646V217.301H59.6458V157.301Z" fill="white"/>
</mask>
<g mask="url(#mask0_4_79)">
<path fill-rule="evenodd" clip-rule="evenodd" d="M59.6458 58.2317H317.646V316.232H59.6458V58.2317Z" fill="#30ACB4"/>
</g>
<mask id="mask1_4_79" style="mask-type:alpha" maskUnits="userSpaceOnUse" x="171" y="268" width="36" height="35">
<path d="M171 268H206.139V302.037H171V268Z" fill="white"/>
</mask>
<g mask="url(#mask1_4_79)">
<path fill-rule="evenodd" clip-rule="evenodd" d="M193.917 279.167L206.139 280.912L197.335 289.657L199.471 301.948L188.523 296.186L177.621 302.037L179.658 289.73L170.785 281.056L182.992 279.212L188.41 268L193.917 279.167Z" fill="white"/>
</g>
<path fill-rule="evenodd" clip-rule="evenodd" d="M227.87 89.8803C227.87 88.6713 227.312 87.7413 226.289 87.0903C226.103 86.9973 225.824 86.8113 225.638 86.7183C225.638 83.6494 225.545 80.4875 225.359 77.3256C224.987 70.0718 221.174 66.5378 214.013 66.4448C207.782 66.4448 201.551 66.4448 195.32 66.4448C185.183 66.4448 175.139 66.3518 165.002 66.5378C155.702 66.7238 151.982 70.6297 151.982 79.9295C151.982 82.1614 151.982 84.3934 151.982 86.7183C151.424 86.9043 150.959 87.3693 150.587 87.8343C149.936 88.3923 149.75 89.2293 149.75 90.1592C149.75 94.4371 149.75 98.715 149.75 103.086C149.75 104.388 150.215 105.411 151.331 106.062C151.61 106.248 151.796 106.341 152.075 106.434C152.075 115.641 152.075 124.754 152.075 133.961C152.075 135.263 151.889 136.751 152.54 137.867C153.935 140.099 153.656 142.517 153.749 144.935C153.842 147.911 155.795 149.957 158.771 150.05C160.91 150.143 163.049 150.143 165.188 150.05C168.257 149.957 170.21 148.19 170.303 145.121C170.396 143.819 170.582 143.354 172.07 143.354C183.23 143.447 194.483 143.447 205.643 143.354C207.038 143.354 207.41 143.726 207.41 145.121C207.503 148.376 209.456 150.05 212.711 150.05C214.571 150.05 216.431 150.05 218.291 150.05C222.104 150.05 223.964 148.097 224.057 144.284C224.057 142.796 223.592 141.122 224.429 139.727C225.452 137.867 225.731 136.007 225.731 133.961C225.731 125.312 225.731 116.664 225.731 106.434C226.382 106.341 226.94 105.783 227.312 105.225C227.777 104.667 227.963 103.923 227.963 103.179C227.87 98.808 227.87 94.3441 227.87 89.8803ZM173.279 73.1407C178.859 73.1407 184.439 73.1407 189.926 73.1407C195.32 73.1407 200.714 73.1407 206.201 73.1407C208.619 73.1407 208.898 73.5127 208.991 76.3026C208.991 79.3715 208.712 79.8365 206.387 79.8365C195.32 79.8365 184.253 79.8365 173.279 79.8365C170.861 79.8365 170.396 79.2785 170.396 76.4886C170.303 73.6987 170.768 73.1407 173.279 73.1407ZM166.304 135.077C163.049 135.077 160.352 132.38 160.352 129.125C160.445 125.963 163.142 123.359 166.211 123.359C169.466 123.359 171.884 125.87 171.884 129.218C171.977 132.473 169.466 135.077 166.304 135.077ZM165.467 114.99C161.933 114.99 160.352 113.316 160.352 109.689C160.352 103.179 160.352 96.6691 160.352 90.1592C160.352 86.5323 161.84 85.0444 165.467 85.0444C173.279 85.0444 180.998 85.0444 188.81 85.0444C196.436 85.0444 204.062 85.0444 211.688 85.0444C215.78 85.0444 217.175 86.4393 217.175 90.4382C217.175 96.6691 217.175 102.9 217.175 109.131C217.175 112.851 215.129 114.897 211.409 114.99C196.157 114.99 180.812 114.99 165.467 114.99ZM211.409 135.077C208.247 135.077 205.736 132.566 205.643 129.311C205.643 125.963 208.061 123.452 211.316 123.452C214.571 123.452 217.268 126.149 217.268 129.404C217.175 132.38 214.571 135.077 211.409 135.077Z" fill="white"/>
<path d="M70.8754 173.1H75.9814L79.9404 188.603H80.0144V173.1H83.6404V199H79.4594L74.5754 180.093H74.5014V199H70.8754V173.1ZM92.5484 199.37C90.5504 199.37 89.0211 198.803 87.9604 197.668C86.8998 196.533 86.3694 194.93 86.3694 192.858V179.242C86.3694 177.17 86.8998 175.567 87.9604 174.432C89.0211 173.297 90.5504 172.73 92.5484 172.73C94.5464 172.73 96.0758 173.297 97.1364 174.432C98.1971 175.567 98.7274 177.17 98.7274 179.242V192.858C98.7274 194.93 98.1971 196.533 97.1364 197.668C96.0758 198.803 94.5464 199.37 92.5484 199.37ZM92.5484 195.67C93.9544 195.67 94.6574 194.819 94.6574 193.117V178.983C94.6574 177.281 93.9544 176.43 92.5484 176.43C91.1424 176.43 90.4394 177.281 90.4394 178.983V193.117C90.4394 194.819 91.1424 195.67 92.5484 195.67ZM101.48 173.1H107.696C109.719 173.1 111.236 173.643 112.247 174.728C113.258 175.813 113.764 177.404 113.764 179.501V192.599C113.764 194.696 113.258 196.287 112.247 197.372C111.236 198.457 109.719 199 107.696 199H101.48V173.1ZM107.622 195.3C108.288 195.3 108.794 195.103 109.139 194.708C109.509 194.313 109.694 193.672 109.694 192.784V179.316C109.694 178.428 109.509 177.787 109.139 177.392C108.794 176.997 108.288 176.8 107.622 176.8H105.55V195.3H107.622ZM116.511 173.1H127.611V176.8H120.581V183.645H126.168V187.345H120.581V195.3H127.611V199H116.511V173.1ZM129.361 184.2H137.501V187.9H129.361V184.2ZM145.697 199.37C143.724 199.37 142.219 198.815 141.183 197.705C140.147 196.57 139.629 194.955 139.629 192.858V179.242C139.629 177.145 140.147 175.542 141.183 174.432C142.219 173.297 143.724 172.73 145.697 172.73C147.671 172.73 149.175 173.297 150.211 174.432C151.247 175.542 151.765 177.145 151.765 179.242V181.462H147.917V178.983C147.917 177.281 147.214 176.43 145.808 176.43C144.402 176.43 143.699 177.281 143.699 178.983V193.154C143.699 194.831 144.402 195.67 145.808 195.67C147.214 195.67 147.917 194.831 147.917 193.154V188.085H145.882V184.385H151.765V192.858C151.765 194.955 151.247 196.57 150.211 197.705C149.175 198.815 147.671 199.37 145.697 199.37ZM157.56 176.8H153.305V173.1H165.885V176.8H161.63V199H157.56V176.8ZM167.856 173.1H178.623V176.8H171.926V184.015H177.18V187.715H171.926V199H167.856V173.1ZM185.866 199.37C183.892 199.37 182.4 198.815 181.389 197.705C180.377 196.57 179.872 194.955 179.872 192.858V191.378H183.72V193.154C183.72 194.831 184.423 195.67 185.829 195.67C186.519 195.67 187.037 195.473 187.383 195.078C187.753 194.659 187.938 193.993 187.938 193.08C187.938 191.995 187.691 191.045 187.198 190.231C186.704 189.392 185.792 188.393 184.46 187.234C182.782 185.754 181.611 184.422 180.945 183.238C180.279 182.029 179.946 180.673 179.946 179.168C179.946 177.121 180.464 175.542 181.5 174.432C182.536 173.297 184.04 172.73 186.014 172.73C187.962 172.73 189.43 173.297 190.417 174.432C191.428 175.542 191.934 177.145 191.934 179.242V180.315H188.086V178.983C188.086 178.095 187.913 177.454 187.568 177.059C187.222 176.64 186.717 176.43 186.051 176.43C184.694 176.43 184.016 177.256 184.016 178.909C184.016 179.846 184.262 180.722 184.756 181.536C185.274 182.35 186.199 183.337 187.531 184.496C189.233 185.976 190.404 187.32 191.046 188.529C191.687 189.738 192.008 191.156 192.008 192.784C192.008 194.905 191.477 196.533 190.417 197.668C189.381 198.803 187.864 199.37 185.866 199.37ZM193.605 184.2H201.745V187.9H193.605V184.2ZM204.169 173.1H210.2C212.297 173.1 213.826 173.593 214.788 174.58C215.75 175.542 216.231 177.034 216.231 179.057V180.648C216.231 183.337 215.343 185.039 213.567 185.754V185.828C214.554 186.124 215.245 186.728 215.639 187.641C216.059 188.554 216.268 189.775 216.268 191.304V195.855C216.268 196.595 216.293 197.199 216.342 197.668C216.392 198.112 216.515 198.556 216.712 199H212.568C212.42 198.581 212.322 198.186 212.272 197.816C212.223 197.446 212.198 196.78 212.198 195.818V191.082C212.198 189.898 212.001 189.072 211.606 188.603C211.236 188.134 210.583 187.9 209.645 187.9H208.239V199H204.169V173.1ZM209.719 184.2C210.533 184.2 211.138 183.99 211.532 183.571C211.952 183.152 212.161 182.449 212.161 181.462V179.464C212.161 178.527 211.989 177.848 211.643 177.429C211.323 177.01 210.805 176.8 210.089 176.8H208.239V184.2H209.719ZM219.092 173.1H230.192V176.8H223.162V183.645H228.749V187.345H223.162V195.3H230.192V199H219.092V173.1ZM235.679 173.1H241.192L245.41 199H241.34L240.6 193.857V193.931H235.975L235.235 199H231.461L235.679 173.1ZM240.119 190.416L238.306 177.614H238.232L236.456 190.416H240.119ZM247.384 173.1H251.454V195.3H258.151V199H247.384V173.1ZM260.394 176.8H256.139V173.1H268.719V176.8H264.464V199H260.394V176.8ZM270.69 173.1H274.76V199H270.69V173.1ZM277.808 173.1H283.617L286.207 191.637H286.281L288.871 173.1H294.68V199H290.832V179.39H290.758L287.798 199H284.394L281.434 179.39H281.36V199H277.808V173.1ZM297.717 173.1H308.817V176.8H301.787V183.645H307.374V187.345H301.787V195.3H308.817V199H297.717V173.1Z" fill="white"/>
</svg>
